<svg width="425" height="425" viewBox="0 0 425 425" fill="none" xmlns="http://www.w3.org/2000/svg">
<rect x="7.70693" y="212.697" width="290" height="290" rx="5" transform="rotate(-45 7.70693 212.697)" fill="#F1B47C" stroke="black" stroke-width="10"/>
<path d="M161.218 146.495C163.496 146.495 165.295 146.04 166.613 145.128C167.948 144.217 168.615 142.573 168.615 140.197C168.615 137.641 167.688 135.9 165.832 134.972C164.839 134.484 163.513 134.24 161.853 134.24H149.987V146.495H161.218ZM145.129 130.065H161.73C164.465 130.065 166.719 130.463 168.493 131.261C171.862 132.791 173.547 135.615 173.547 139.733C173.547 141.881 173.099 143.639 172.204 145.006C171.325 146.373 170.088 147.472 168.493 148.302C169.893 148.872 170.943 149.62 171.643 150.548C172.359 151.476 172.757 152.981 172.839 155.065L173.01 159.874C173.059 161.241 173.173 162.259 173.352 162.926C173.645 164.065 174.165 164.798 174.914 165.123V165.929H168.957C168.794 165.62 168.664 165.221 168.566 164.733C168.469 164.244 168.387 163.3 168.322 161.901L168.029 155.919C167.915 153.575 167.045 152.005 165.417 151.207C164.489 150.768 163.033 150.548 161.047 150.548H149.987V165.929H145.129V130.065ZM196.154 129.088C202.486 129.088 207.173 131.123 210.217 135.192C212.593 138.365 213.781 142.426 213.781 147.374C213.781 152.729 212.422 157.181 209.704 160.729C206.514 164.895 201.965 166.979 196.057 166.979C190.539 166.979 186.201 165.156 183.044 161.51C180.228 157.994 178.82 153.551 178.82 148.18C178.82 143.33 180.025 139.179 182.434 135.729C185.526 131.302 190.1 129.088 196.154 129.088ZM196.643 162.633C200.923 162.633 204.016 161.103 205.92 158.043C207.84 154.967 208.801 151.435 208.801 147.448C208.801 143.232 207.694 139.838 205.48 137.267C203.283 134.695 200.272 133.409 196.447 133.409C192.736 133.409 189.709 134.687 187.365 137.242C185.021 139.781 183.85 143.533 183.85 148.497C183.85 152.469 184.851 155.822 186.853 158.556C188.871 161.274 192.134 162.633 196.643 162.633ZM238 151.232L232.556 135.387L226.77 151.232H238ZM230.017 130.065H235.51L248.522 165.929H243.2L239.562 155.187H225.378L221.496 165.929H216.516L230.017 130.065ZM266.711 161.779C268.355 161.779 269.706 161.608 270.764 161.266C272.652 160.631 274.198 159.41 275.402 157.604C276.363 156.155 277.054 154.3 277.478 152.037C277.722 150.686 277.844 149.433 277.844 148.278C277.844 143.834 276.957 140.384 275.183 137.926C273.425 135.468 270.585 134.24 266.662 134.24H258.044V161.779H266.711ZM253.161 130.065H267.688C272.619 130.065 276.444 131.814 279.162 135.314C281.587 138.471 282.8 142.516 282.8 147.448C282.8 151.256 282.084 154.698 280.651 157.775C278.129 163.211 273.791 165.929 267.639 165.929H253.161V130.065ZM141.369 187.065L148.132 216.24L156.237 187.065H161.511L169.616 216.24L176.379 187.065H181.701L172.277 222.929H167.175L158.898 193.193L150.573 222.929H145.471L136.096 187.065H141.369ZM201.696 186.088C208.028 186.088 212.715 188.123 215.759 192.192C218.135 195.365 219.323 199.426 219.323 204.374C219.323 209.729 217.964 214.181 215.246 217.729C212.056 221.895 207.507 223.979 201.599 223.979C196.081 223.979 191.743 222.156 188.586 218.51C185.77 214.994 184.362 210.551 184.362 205.18C184.362 200.33 185.567 196.179 187.976 192.729C191.068 188.302 195.642 186.088 201.696 186.088ZM202.185 219.633C206.465 219.633 209.558 218.103 211.462 215.043C213.382 211.967 214.343 208.435 214.343 204.448C214.343 200.232 213.236 196.838 211.022 194.267C208.825 191.695 205.814 190.409 201.989 190.409C198.278 190.409 195.251 191.687 192.907 194.242C190.563 196.781 189.392 200.533 189.392 205.497C189.392 209.469 190.393 212.822 192.395 215.556C194.413 218.274 197.676 219.633 202.185 219.633ZM241.809 203.495C244.087 203.495 245.886 203.04 247.204 202.128C248.539 201.217 249.206 199.573 249.206 197.197C249.206 194.641 248.278 192.9 246.423 191.972C245.43 191.484 244.104 191.24 242.443 191.24H230.578V203.495H241.809ZM225.72 187.065H242.321C245.056 187.065 247.31 187.463 249.084 188.261C252.453 189.791 254.138 192.615 254.138 196.733C254.138 198.881 253.69 200.639 252.795 202.006C251.916 203.373 250.679 204.472 249.084 205.302C250.484 205.872 251.534 206.62 252.233 207.548C252.95 208.476 253.348 209.981 253.43 212.065L253.601 216.874C253.649 218.241 253.763 219.259 253.942 219.926C254.235 221.065 254.756 221.798 255.505 222.123V222.929H249.548C249.385 222.62 249.255 222.221 249.157 221.733C249.06 221.244 248.978 220.3 248.913 218.901L248.62 212.919C248.506 210.575 247.635 209.005 246.008 208.207C245.08 207.768 243.623 207.548 241.638 207.548H230.578V222.929H225.72V187.065ZM261.267 187.065H266.003V204.545L283.483 187.065H290.197L275.28 201.518L290.612 222.929H284.289L271.74 204.936L266.003 210.429V222.929H261.267V187.065ZM148.376 265.232L142.932 249.387L137.146 265.232H148.376ZM140.393 244.065H145.886L158.898 279.929H153.576L149.938 269.187H135.754L131.872 279.929H126.892L140.393 244.065ZM163.439 244.065H168.347V258.884H186.999V244.065H191.906V279.929H186.999V263.156H168.347V279.929H163.439V244.065ZM199.914 244.065H226.062V248.459H204.65V259.348H224.45V263.498H204.65V275.656H226.428V279.929H199.914V244.065ZM251.208 265.232L245.764 249.387L239.978 265.232H251.208ZM243.225 244.065H248.718L261.73 279.929H256.408L252.771 269.187H238.586L234.704 279.929H229.724L243.225 244.065ZM279.919 275.779C281.563 275.779 282.914 275.608 283.972 275.266C285.86 274.631 287.406 273.41 288.61 271.604C289.571 270.155 290.262 268.3 290.686 266.037C290.93 264.686 291.052 263.433 291.052 262.278C291.052 257.834 290.165 254.384 288.391 251.926C286.633 249.468 283.793 248.24 279.87 248.24H271.252V275.779H279.919ZM266.369 244.065H280.896C285.827 244.065 289.652 245.814 292.37 249.314C294.795 252.471 296.008 256.516 296.008 261.448C296.008 265.256 295.292 268.698 293.859 271.775C291.337 277.211 286.999 279.929 280.847 279.929H266.369V244.065Z" fill="black"/>
</svg>
